<svg width="1400" height="1400" viewBox="0 0 1400 1400" fill="none" xmlns="http://www.w3.org/2000/svg">
<path d="M1400 0H0V1400H1400V0Z" fill="url(#paint0_linear_3_802)"/>
<path d="M175.296 450.625C176.466 449.892 176.819 448.349 176.086 447.179C175.353 446.009 173.81 445.655 172.64 446.389C171.47 447.122 171.116 448.665 171.85 449.835C172.583 451.005 174.126 451.359 175.296 450.625Z" fill="white"/>
<path d="M341.819 875.545C342.989 874.811 343.343 873.269 342.61 872.099C341.876 870.929 340.334 870.575 339.164 871.308C337.994 872.042 337.64 873.584 338.373 874.754C339.107 875.924 340.649 876.278 341.819 875.545Z" fill="white"/>
<path d="M571.768 640.608C572.938 639.875 573.291 638.332 572.558 637.162C571.825 635.992 570.282 635.638 569.112 636.372C567.942 637.105 567.588 638.648 568.322 639.818C569.055 640.988 570.598 641.342 571.768 640.608Z" fill="white"/>
<path d="M528.822 279.343C529.992 278.61 530.345 277.067 529.612 275.897C528.879 274.727 527.336 274.373 526.166 275.107C524.996 275.84 524.642 277.383 525.376 278.553C526.109 279.723 527.652 280.076 528.822 279.343Z" fill="white"/>
<path d="M528.85 87.4346C530.019 86.7013 530.373 85.1584 529.64 83.9886C528.907 82.8187 527.364 82.4648 526.194 83.1981C525.024 83.9314 524.67 85.4742 525.404 86.6441C526.137 87.8139 527.68 88.1679 528.85 87.4346Z" fill="white"/>
<path d="M736.305 212.096C738.177 210.922 738.743 208.454 737.57 206.582C736.396 204.71 733.928 204.144 732.056 205.317C730.184 206.491 729.618 208.959 730.791 210.831C731.964 212.703 734.433 213.269 736.305 212.096Z" fill="white"/>
<path d="M267.391 689.546C268.561 688.813 268.915 687.27 268.182 686.1C267.449 684.931 265.906 684.577 264.736 685.31C263.566 686.043 263.212 687.586 263.945 688.756C264.679 689.926 266.221 690.28 267.391 689.546Z" fill="white"/>
<path d="M124.281 784.94C125.451 784.206 125.805 782.663 125.072 781.494C124.338 780.324 122.795 779.97 121.625 780.703C120.456 781.437 120.102 782.98 120.835 784.15C121.569 785.319 123.112 785.673 124.281 784.94Z" fill="white"/>
<path d="M344.346 358.341C345.516 357.608 345.87 356.065 345.137 354.895C344.404 353.725 342.861 353.371 341.691 354.105C340.521 354.838 340.167 356.381 340.9 357.551C341.634 358.72 343.177 359.074 344.346 358.341Z" fill="white"/>
<path d="M1359.31 536.848C1360.48 536.114 1360.84 534.572 1360.1 533.402C1359.37 532.232 1357.83 531.878 1356.66 532.611C1355.49 533.345 1355.13 534.887 1355.87 536.057C1356.6 537.227 1358.14 537.581 1359.31 536.848Z" fill="white"/>
<path d="M1212.54 339.877C1213.71 339.144 1214.07 337.601 1213.33 336.431C1212.6 335.261 1211.06 334.907 1209.89 335.641C1208.72 336.374 1208.36 337.917 1209.1 339.087C1209.83 340.256 1211.37 340.61 1212.54 339.877Z" fill="white"/>
<path d="M235.117 241.913C236.287 241.179 236.641 239.637 235.907 238.467C235.174 237.297 233.631 236.943 232.461 237.676C231.291 238.41 230.938 239.952 231.671 241.122C232.404 242.292 233.947 242.646 235.117 241.913Z" fill="white"/>
<path d="M694.883 565.897C696.052 565.164 696.406 563.621 695.673 562.451C694.939 561.281 693.396 560.927 692.227 561.661C691.057 562.394 690.703 563.937 691.436 565.107C692.17 566.277 693.713 566.631 694.883 565.897Z" fill="white"/>
<path d="M1006.66 661.605C1007.83 660.871 1008.19 659.328 1007.46 658.159C1006.72 656.989 1005.18 656.635 1004.01 657.368C1002.84 658.102 1002.49 659.645 1003.22 660.815C1003.95 661.984 1005.5 662.338 1006.66 661.605Z" fill="white"/>
<path d="M941.438 415.064C942.608 414.331 942.962 412.788 942.229 411.618C941.496 410.448 939.953 410.094 938.783 410.827C937.613 411.561 937.259 413.104 937.992 414.273C938.726 415.443 940.269 415.797 941.438 415.064Z" fill="white"/>
<path d="M1230.21 728.825C1231.38 728.092 1231.74 726.549 1231 725.379C1230.27 724.209 1228.73 723.855 1227.56 724.589C1226.39 725.322 1226.03 726.865 1226.77 728.035C1227.5 729.205 1229.04 729.559 1230.21 728.825Z" fill="white"/>
<path d="M1001.68 159.869C1002.85 159.136 1003.2 157.593 1002.47 156.423C1001.73 155.253 1000.19 154.899 999.02 155.633C997.85 156.366 997.496 157.909 998.23 159.079C998.963 160.249 1000.51 160.603 1001.68 159.869Z" fill="white"/>
<path d="M1114.87 539.31C1116.04 538.576 1116.39 537.033 1115.66 535.864C1114.92 534.694 1113.38 534.34 1112.21 535.073C1111.04 535.807 1110.69 537.35 1111.42 538.52C1112.15 539.689 1113.7 540.043 1114.87 539.31Z" fill="white"/>
<path d="M998.86 526.136C1000.26 525.256 1000.69 523.404 999.808 522.001C998.928 520.597 997.076 520.172 995.672 521.052C994.268 521.932 993.844 523.784 994.724 525.188C995.604 526.592 997.456 527.016 998.86 526.136Z" fill="white"/>
<path d="M627.627 202.919C629.031 202.038 629.455 200.187 628.575 198.783C627.695 197.379 625.844 196.955 624.44 197.835C623.036 198.715 622.611 200.566 623.491 201.97C624.372 203.374 626.223 203.799 627.627 202.919Z" fill="white"/>
<path d="M803.302 57.1716C805.595 55.7343 806.288 52.7104 804.851 50.4175C803.414 48.1245 800.39 47.4308 798.097 48.8681C795.804 50.3053 795.11 53.3293 796.548 55.6222C797.985 57.9152 801.009 58.6089 803.302 57.1716Z" fill="white"/>
<path d="M1044.13 289.384C1046.42 287.946 1047.11 284.922 1045.68 282.629C1044.24 280.337 1041.21 279.643 1038.92 281.08C1036.63 282.517 1035.93 285.541 1037.37 287.834C1038.81 290.127 1041.83 290.821 1044.13 289.384Z" fill="white"/>
<path d="M1242.5 629.114C1244.79 627.677 1245.48 624.653 1244.05 622.36C1242.61 620.067 1239.59 619.374 1237.29 620.811C1235 622.248 1234.31 625.272 1235.74 627.565C1237.18 629.858 1240.2 630.552 1242.5 629.114Z" fill="white"/>
<path d="M1336.61 57.2213C1338.91 55.784 1339.6 52.7601 1338.16 50.4671C1336.73 48.1741 1333.7 47.4805 1331.41 48.9177C1329.12 50.355 1328.42 53.379 1329.86 55.6719C1331.3 57.9649 1334.32 58.6585 1336.61 57.2213Z" fill="white"/>
<path d="M689.525 725.056C690.929 724.176 691.354 722.324 690.474 720.92C689.594 719.517 687.742 719.092 686.338 719.972C684.934 720.852 684.51 722.704 685.39 724.108C686.27 725.511 688.122 725.936 689.525 725.056Z" fill="white"/>
<path d="M447.603 502.92C449.007 502.04 449.432 500.188 448.552 498.785C447.672 497.381 445.82 496.956 444.416 497.836C443.012 498.716 442.588 500.568 443.468 501.972C444.348 503.376 446.2 503.8 447.603 502.92Z" fill="white"/>
<path d="M798.371 451.96C800.664 450.523 801.358 447.499 799.921 445.206C798.483 442.913 795.459 442.219 793.166 443.656C790.873 445.094 790.18 448.117 791.617 450.41C793.054 452.703 796.078 453.397 798.371 451.96Z" fill="white"/>
<path d="M620.628 397.991C622.921 396.554 623.615 393.53 622.178 391.237C620.74 388.944 617.716 388.25 615.423 389.687C613.13 391.125 612.437 394.149 613.874 396.442C615.311 398.734 618.335 399.428 620.628 397.991Z" fill="white"/>
<path d="M1331.69 859.539C1333.99 858.101 1334.68 855.077 1333.24 852.784C1331.81 850.491 1328.78 849.798 1326.49 851.235C1324.2 852.672 1323.5 855.696 1324.94 857.989C1326.38 860.282 1329.4 860.976 1331.69 859.539Z" fill="white"/>
<path d="M458.453 796.734C460.746 795.296 461.439 792.272 460.002 789.979C458.564 787.686 455.54 786.993 453.247 788.43C450.954 789.868 450.261 792.892 451.698 795.185C453.136 797.478 456.16 798.172 458.453 796.734Z" fill="white"/>
<path d="M69.7512 917.36C72.0442 915.922 72.7376 912.898 71.3001 910.605C69.8626 908.312 66.8384 907.619 64.5454 909.056C62.2525 910.494 61.559 913.518 62.9966 915.811C64.4341 918.104 67.4582 918.797 69.7512 917.36Z" fill="white"/>
<path d="M100.809 328.574C102.213 327.694 102.637 325.842 101.757 324.439C100.877 323.035 99.0255 322.61 97.6216 323.49C96.2178 324.37 95.7932 326.222 96.6733 327.626C97.5534 329.03 99.405 329.454 100.809 328.574Z" fill="white"/>
<path d="M103.869 622.556C105.273 621.676 105.697 619.824 104.818 618.42C103.938 617.017 102.086 616.592 100.682 617.472C99.2785 618.352 98.8538 620.203 99.7337 621.607C100.614 623.011 102.465 623.436 103.869 622.556Z" fill="white"/>
<path d="M47.209 87.8451C48.6128 86.9651 49.0375 85.1137 48.1576 83.7099C47.2776 82.306 45.4262 81.8813 44.0224 82.7613C42.6185 83.6412 42.1938 85.4926 43.0738 86.8965C43.9537 88.3003 45.8051 88.725 47.209 87.8451Z" fill="white"/>
<path d="M1175.4 118.72C1177.7 117.282 1178.39 114.258 1176.95 111.966C1175.52 109.673 1172.49 108.979 1170.2 110.416C1167.91 111.853 1167.21 114.877 1168.65 117.17C1170.09 119.463 1173.11 120.157 1175.4 118.72Z" fill="white"/>
<path d="M363.818 78.505C365.222 77.6248 365.647 75.7733 364.767 74.3695C363.886 72.9656 362.035 72.541 360.631 73.4212C359.227 74.3013 358.803 76.1528 359.683 77.5567C360.563 78.9605 362.414 79.3851 363.818 78.505Z" fill="white"/>
<path d="M381.8 577.2C381.8 589 372.2 598.6 360.4 598.6C372.2 598.6 381.8 608.2 381.8 620C381.8 608.2 391.4 598.6 403.2 598.6C391.4 598.6 381.8 589 381.8 577.2Z" fill="white"/>
<path d="M1307.8 253.3C1307.8 265.1 1298.2 274.7 1286.4 274.7C1298.2 274.7 1307.8 284.3 1307.8 296.1C1307.8 284.3 1317.4 274.7 1329.2 274.7C1317.3 274.7 1307.8 265.1 1307.8 253.3Z" fill="white"/>
<path d="M805.6 307.7C805.6 319.5 796 329.1 784.2 329.1C796 329.1 805.6 338.7 805.6 350.5C805.6 338.7 815.2 329.1 827 329.1C815.1 329.1 805.6 319.5 805.6 307.7Z" fill="white"/>
<path d="M850.2 629.8C850.2 638.7 843 645.9 834.1 645.9C843 645.9 850.2 653.1 850.2 662C850.2 653.1 857.4 645.9 866.3 645.9C857.4 645.9 850.2 638.7 850.2 629.8Z" fill="white"/>
<path d="M144.3 114.5C144.3 126.3 134.7 135.9 122.9 135.9C134.7 135.9 144.3 145.5 144.3 157.3C144.3 145.5 153.9 135.9 165.7 135.9C153.9 135.9 144.3 126.3 144.3 114.5Z" fill="white"/>
<path d="M1342 978.3C1338.7 976.8 1335 975.9 1331.1 975.9C1327.2 975.9 1323.5 976.8 1320.2 978.3C1317.6 972.7 1311.9 968.7 1305.2 968.7C1304.6 968.7 1303.9 968.7 1303.3 968.8C1300.2 958.9 1293.3 950.6 1284.4 945.6C1287.1 937.8 1288.6 929.4 1288.6 920.6C1288.6 879.1 1255 845.4 1213.4 845.4C1209.6 845.4 1206 845.7 1202.3 846.2C1201.4 833.2 1195.7 821.6 1186.9 813.1C1187.8 808.5 1188.3 803.7 1188.3 798.9C1188.3 757.4 1154.7 723.7 1113.1 723.7C1110.8 723.7 1108.4 723.8 1106.2 724C1089.5 676.7 1044.4 642.8 991.3 642.8C938.4 642.8 893.3 676.6 876.5 723.8C875.7 723.8 875 723.8 874.2 723.8C832.7 723.8 799 757.5 799 799C772.2 799 750.3 819.8 748.4 846.1C745.7 845.6 742.9 845.3 740.1 845.3C727.8 845.3 716.8 850.7 709.2 859.2C701.5 842.4 684.6 830.7 664.9 830.7C658.6 830.7 652.6 831.9 647.1 834.1C638.6 821.6 624.3 813.4 608.1 813.4C582.3 813.4 561.4 834.1 560.9 859.7C530.4 867.1 507.4 893.8 505.9 926.2C499.3 922.7 491.7 920.8 483.7 920.8C474.3 920.8 465.6 923.5 458.2 928.1C458.2 901.6 436.7 880.1 410.2 880.1C387.1 880.1 367.8 896.5 363.2 918.2C357.2 916.5 350.9 915.6 344.4 915.6C316.3 915.6 292.1 932.2 281.1 956.2C274.9 951.5 267.2 948.7 258.8 948.7C247.1 948.7 236.7 954.2 230 962.7C226.1 960.4 221.5 959 216.6 959C206.1 959 197 965.2 192.8 974.1C188.5 972.3 183.8 971.4 178.9 971.4C174.9 971.4 171 972.1 167.4 973.3C162.8 963.2 152.6 956.2 140.8 956.2C128.2 956.2 117.5 964.1 113.3 975.3C108.2 972.7 102.4 971.2 96.3 971.2C90.3 971.2 84.6 972.7 79.5 975.2C76.4 971.1 71.4 968.4 65.9 968.4C56.4 968.4 48.8 976.1 48.8 985.5H67.1H83.1H111.5H125.6H150.1H170.1H190.3H207.7H222.1H243H274.7H295.5H414.2H438.7H529H532.1H624H1175.1H1224.5H1252.2H1288.8H1305.1H1311.3H1321.8H1340.5H1351C1348.6 982.3 1345.5 979.9 1342 978.3Z" fill="url(#paint1_linear_3_802)"/>
<path d="M1060.7 712C1060.7 700.3 1057.8 689.3 1052.7 679.7C1041.1 657.8 1018.1 642.9 991.6 642.9C938.7 642.9 893.6 676.7 876.8 723.9C876 723.9 875.3 723.9 874.5 723.9C833 723.9 799.3 757.6 799.3 799.1C772.5 799.1 750.6 819.9 748.7 846.2C746 845.7 743.2 845.4 740.4 845.4C728.2 845.4 717.2 850.7 709.6 859.2V859.3C712.4 865.5 714 872.3 714 879.5C714 885.5 712.9 891.3 710.9 896.7C716.5 910.2 729.8 919.6 745.3 919.6C762.7 919.6 777.3 907.7 781.4 891.7C784.9 895.1 789.7 897.2 795 897.2C803.3 897.2 810.5 892 813.3 884.6C824.8 892.5 838.7 897.2 853.7 897.2C889 897.2 918.3 871.4 923.8 837.7C928.8 839.7 934.3 840.8 940.1 840.8C957.9 840.8 973.2 830.4 980.4 815.4C996.4 821.6 1015.2 818.3 1028.2 805.3C1039.9 793.6 1043.8 777 1039.7 762C1052.6 749.2 1060.7 731.6 1060.7 712Z" fill="url(#paint2_linear_3_802)"/>
<path d="M655.5 860.5C655.5 850.7 652.5 841.5 647.3 834C638.8 821.5 624.5 813.3 608.3 813.3C582.5 813.3 561.6 834 561.1 859.6C530.6 867 507.6 893.7 506.1 926.1C499.5 922.6 491.9 920.7 483.9 920.7C474.5 920.7 465.8 923.4 458.4 928C458.4 901.5 436.9 880 410.4 880C387.3 880 368 896.4 363.4 918.1C357.4 916.4 351.1 915.5 344.6 915.5C316.5 915.5 292.3 932.1 281.3 956.1C275.1 951.4 267.4 948.6 259 948.6C247.3 948.6 236.9 954.1 230.2 962.6C226.3 960.3 221.7 958.9 216.8 958.9C206.3 958.9 197.2 965.1 193 974C188.7 972.2 184 971.3 179.1 971.3C175.1 971.3 171.2 972 167.6 973.2C163 963.1 152.8 956.1 141 956.1C128.4 956.1 117.7 964 113.5 975.2C108.4 972.6 102.6 971.1 96.5 971.1C90.5 971.1 84.8 972.6 79.7 975.1C76.6 971 71.6 968.3 66.1 968.3C56.6 968.3 49 976 49 985.4H67.3H83.3H111.7H125.8H150.3H170.3H190.5H207.9H222.3H243.2H274.9H295.7H414.4H416.7C421.1 981.5 424.6 976.6 426.8 971.1C430.9 972.6 435.2 973.4 439.8 973.4C446 973.4 451.8 971.9 456.9 969.2C460.7 971.8 465.2 973.4 470.2 973.4C480 973.4 488.4 967.3 491.9 958.7C496.1 964.8 503.2 968.8 511.2 968.8C521.1 968.8 529.6 962.6 533 953.9C545.7 951.2 556 942.1 560.3 930.1C564.4 933.7 569.8 935.9 575.7 935.9C581.8 935.9 587.4 933.5 591.6 929.7C597.4 933.5 604.4 935.7 611.9 935.7C624.5 935.7 635.6 929.4 642.4 919.9C644.6 916.8 646.3 913.3 647.5 909.6C648.6 906.1 649.2 902.4 649.2 898.5C649.2 894.6 648.6 890.8 647.5 887.2C652.5 879.6 655.5 870.4 655.5 860.5Z" fill="url(#paint3_linear_3_802)"/>
<path d="M1400 985.2H0V1400H1400V985.2Z" fill="url(#paint4_linear_3_802)"/>
<g opacity="0.2">
<path opacity="0.2" d="M1342 992.2C1338.7 993.7 1335 994.6 1331.1 994.6C1327.2 994.6 1323.5 993.7 1320.2 992.2C1317.6 997.8 1311.9 1001.8 1305.2 1001.8C1304.6 1001.8 1303.9 1001.8 1303.3 1001.7C1300.2 1011.6 1293.3 1019.9 1284.4 1024.9C1287.1 1032.7 1288.6 1041.1 1288.6 1049.9C1288.6 1091.4 1255 1125.1 1213.4 1125.1C1209.6 1125.1 1206 1124.8 1202.3 1124.3C1201.4 1137.3 1195.7 1148.9 1186.9 1157.4C1187.8 1162 1188.3 1166.8 1188.3 1171.6C1188.3 1213.1 1154.7 1246.8 1113.1 1246.8C1110.8 1246.8 1108.4 1246.7 1106.2 1246.5C1089.5 1293.8 1044.4 1327.7 991.3 1327.7C938.4 1327.7 893.3 1293.9 876.5 1246.7C875.7 1246.7 875 1246.7 874.2 1246.7C832.7 1246.7 799 1213 799 1171.5C772.2 1171.5 750.3 1150.7 748.4 1124.4C745.7 1124.9 742.9 1125.2 740.1 1125.2C727.8 1125.2 716.8 1119.8 709.2 1111.3C701.5 1128.1 684.6 1139.8 664.9 1139.8C658.6 1139.8 652.6 1138.6 647.1 1136.4C638.6 1148.9 624.3 1157.1 608.1 1157.1C582.3 1157.1 561.4 1136.4 560.9 1110.8C530.4 1103.4 507.4 1076.7 505.9 1044.3C499.3 1047.8 491.7 1049.7 483.7 1049.7C474.3 1049.7 465.6 1047 458.2 1042.4C458.2 1068.9 436.7 1090.4 410.2 1090.4C387.1 1090.4 367.8 1074 363.2 1052.3C357.2 1054 350.9 1054.9 344.4 1054.9C316.3 1054.9 292.1 1038.3 281.1 1014.3C274.9 1019 267.2 1021.8 258.8 1021.8C247.1 1021.8 236.7 1016.3 230 1007.8C226.1 1010.1 221.5 1011.5 216.6 1011.5C206.1 1011.5 197 1005.3 192.8 996.4C188.5 998.2 183.8 999.1 178.9 999.1C174.9 999.1 171 998.4 167.4 997.2C162.8 1007.3 152.6 1014.3 140.8 1014.3C128.2 1014.3 117.5 1006.4 113.3 995.2C108.2 997.8 102.4 999.3 96.3 999.3C90.3 999.3 84.6 997.8 79.5 995.3C76.4 999.4 71.4 1002.1 65.9 1002.1C56.4 1002.1 48.8 994.4 48.8 985H67.1H83.1H111.5H125.6H150.1H170.1H190.3H207.7H222.1H243H274.7H295.5H414.2H438.7H529H532.1H624H1175.1H1224.5H1252.2H1288.8H1305.1H1311.3H1321.8H1340.5H1351C1348.6 988.2 1345.5 990.5 1342 992.2Z" fill="url(#paint5_linear_3_802)"/>
<path opacity="0.2" d="M1060.7 1258.4C1060.7 1270.1 1057.8 1281.1 1052.7 1290.7C1041.1 1312.6 1018.1 1327.5 991.6 1327.5C938.7 1327.5 893.6 1293.7 876.8 1246.5C876 1246.5 875.3 1246.5 874.5 1246.5C833 1246.5 799.3 1212.8 799.3 1171.3C772.5 1171.3 750.6 1150.5 748.7 1124.2C746 1124.7 743.2 1125 740.4 1125C728.2 1125 717.2 1119.7 709.6 1111.2V1111.1C712.4 1104.9 714 1098.1 714 1090.9C714 1084.9 712.9 1079.1 710.9 1073.7C716.5 1060.2 729.8 1050.8 745.3 1050.8C762.7 1050.8 777.3 1062.7 781.4 1078.7C784.9 1075.3 789.7 1073.2 795 1073.2C803.3 1073.2 810.5 1078.4 813.3 1085.8C824.8 1077.9 838.7 1073.2 853.7 1073.2C889 1073.2 918.3 1099 923.8 1132.7C928.8 1130.7 934.3 1129.6 940.1 1129.6C957.9 1129.6 973.2 1140 980.4 1155C996.4 1148.8 1015.2 1152.1 1028.2 1165.1C1039.9 1176.8 1043.8 1193.4 1039.7 1208.4C1052.6 1221.2 1060.7 1238.9 1060.7 1258.4Z" fill="url(#paint6_linear_3_802)"/>
<path opacity="0.2" d="M655.5 1109.9C655.5 1119.7 652.5 1128.9 647.3 1136.4C638.8 1148.9 624.5 1157.1 608.3 1157.1C582.5 1157.1 561.6 1136.4 561.1 1110.8C530.6 1103.4 507.6 1076.7 506.1 1044.3C499.5 1047.8 491.9 1049.7 483.9 1049.7C474.5 1049.7 465.8 1047 458.4 1042.4C458.4 1068.9 436.9 1090.4 410.4 1090.4C387.3 1090.4 368 1074 363.4 1052.3C357.4 1054 351.1 1054.9 344.6 1054.9C316.5 1054.9 292.3 1038.3 281.3 1014.3C275.1 1019 267.4 1021.8 259 1021.8C247.3 1021.8 236.9 1016.3 230.2 1007.8C226.3 1010.1 221.7 1011.5 216.8 1011.5C206.3 1011.5 197.2 1005.3 193 996.4C188.7 998.2 184 999.1 179.1 999.1C175.1 999.1 171.2 998.4 167.6 997.2C163 1007.3 152.8 1014.3 141 1014.3C128.4 1014.3 117.7 1006.4 113.5 995.2C108.4 997.8 102.6 999.3 96.5 999.3C90.5 999.3 84.8 997.8 79.7 995.3C76.6 999.4 71.6 1002.1 66.1 1002.1C56.6 1002.1 49 994.4 49 985H67.3H83.3H111.7H125.8H150.3H170.3H190.5H207.9H222.3H243.2H274.9H295.7H414.4H416.7C421.1 988.9 424.6 993.8 426.8 999.3C430.9 997.8 435.2 997 439.8 997C446 997 451.8 998.5 456.9 1001.2C460.7 998.6 465.2 997 470.2 997C480 997 488.4 1003.1 491.9 1011.7C496.1 1005.6 503.2 1001.6 511.2 1001.6C521.1 1001.6 529.6 1007.8 533 1016.5C545.7 1019.2 556 1028.3 560.3 1040.3C564.4 1036.7 569.8 1034.5 575.7 1034.5C581.8 1034.5 587.4 1036.9 591.6 1040.7C597.4 1036.9 604.4 1034.7 611.9 1034.7C624.5 1034.7 635.6 1041 642.4 1050.5C644.6 1053.6 646.3 1057.1 647.5 1060.8C648.6 1064.3 649.2 1068 649.2 1071.9C649.2 1075.8 648.6 1079.6 647.5 1083.2C652.5 1090.9 655.5 1100 655.5 1109.9Z" fill="url(#paint7_linear_3_802)"/>
</g>
<g opacity="0.1">
<g opacity="0.1">
<g opacity="0.1">
<path opacity="0.1" d="M1359 1079.9C1146.4 1076.1 926.5 1074.1 701.4 1074.1C476.3 1074.1 256.5 1076.1 43.8 1079.9C256.4 1083.7 476.3 1085.7 701.4 1085.7C926.5 1085.7 1146.4 1083.7 1359 1079.9Z" fill="black"/>
</g>
<g opacity="0.1">
<path opacity="0.1" d="M1091.9 1103.6C965.7 1101 835.1 1099.7 701.5 1099.7C567.9 1099.7 437.3 1101.1 311.1 1103.6C437.3 1106.2 567.9 1107.5 701.5 1107.5C835.1 1107.5 965.6 1106.2 1091.9 1103.6Z" fill="black"/>
</g>
</g>
<g opacity="0.1">
<g opacity="0.1">
<path opacity="0.1" d="M1354 1307.8C1216.1 1304 1073.5 1302 927.6 1302C781.7 1302 639 1304 501.2 1307.8C639.1 1311.6 781.7 1313.6 927.6 1313.6C1073.5 1313.6 1216.1 1311.6 1354 1307.8Z" fill="black"/>
</g>
<g opacity="0.1">
<path opacity="0.1" d="M1180.8 1323.6C1098.9 1321 1014.3 1319.7 927.6 1319.7C840.9 1319.7 756.3 1321.1 674.4 1323.6C756.3 1326.2 840.9 1327.5 927.6 1327.5C1014.3 1327.5 1098.9 1326.1 1180.8 1323.6Z" fill="black"/>
</g>
</g>
<g opacity="0.1">
<g opacity="0.1">
<path opacity="0.1" d="M546 1281.3C481.2 1277.5 414.2 1275.5 345.7 1275.5C277.2 1275.5 210.1 1277.5 145.4 1281.3C210.2 1285.1 277.2 1287.1 345.7 1287.1C414.2 1287.1 481.2 1285.2 546 1281.3Z" fill="black"/>
</g>
<g opacity="0.1">
<path opacity="0.1" d="M277.4 1297.1C238.9 1294.5 199.2 1293.2 158.4 1293.2C117.6 1293.2 77.9 1294.6 39.4 1297.1C77.9 1299.7 117.6 1301 158.4 1301C199.2 1301 239 1299.7 277.4 1297.1Z" fill="black"/>
</g>
</g>
<g opacity="0.1">
<g opacity="0.1">
<path opacity="0.1" d="M437.7 1023.4C575.6 1027.2 718.2 1029.2 864.1 1029.2C1010 1029.2 1152.7 1027.2 1290.5 1023.4C1152.6 1019.6 1010 1017.6 864.1 1017.6C718.2 1017.6 575.6 1019.6 437.7 1023.4Z" fill="black"/>
</g>
<g opacity="0.1">
<path opacity="0.1" d="M87.3 1007.6C169.2 1010.2 253.8 1011.5 340.5 1011.5C427.2 1011.5 511.8 1010.1 593.7 1007.6C511.8 1005 427.2 1003.7 340.5 1003.7C253.8 1003.7 169.2 1005 87.3 1007.6Z" fill="black"/>
</g>
</g>
<g opacity="0.1">
<g opacity="0.1">
<path opacity="0.1" d="M1127.9 1187.7C988.6 1183.9 844.5 1181.9 697 1181.9C549.5 1181.9 405.4 1183.9 266.1 1187.7C405.4 1191.5 549.5 1193.5 697 1193.5C844.5 1193.5 988.6 1191.5 1127.9 1187.7Z" fill="black"/>
</g>
<g opacity="0.1">
<path opacity="0.1" d="M1324.4 1203.5C1241.7 1200.9 1156.1 1199.6 1068.5 1199.6C980.9 1199.6 895.4 1201 812.6 1203.5C895.3 1206.1 980.9 1207.4 1068.5 1207.4C1156.1 1207.4 1241.6 1206.1 1324.4 1203.5Z" fill="black"/>
</g>
</g>
<g opacity="0.1">
<g opacity="0.1">
<path opacity="0.1" d="M489.9 1141.3C417.5 1137.6 342.7 1135.7 266.1 1135.7C189.5 1135.7 114.7 1137.6 42.3 1141.3C114.7 1145 189.5 1146.9 266.1 1146.9C342.7 1146.9 417.5 1144.9 489.9 1141.3Z" fill="black"/>
</g>
<g opacity="0.1">
<path opacity="0.1" d="M1360.5 1141.3C1288.1 1137.6 1213.3 1135.7 1136.7 1135.7C1060.1 1135.7 985.3 1137.6 912.9 1141.3C985.3 1145 1060.1 1146.9 1136.7 1146.9C1213.3 1146.9 1288.1 1144.9 1360.5 1141.3Z" fill="black"/>
</g>
</g>
</g>
<defs>
<linearGradient id="paint0_linear_3_802" x1="700" y1="1400" x2="700" y2="0" gradientUnits="userSpaceOnUse">
<stop stop-color="#BC6BFF"/>
<stop offset="1" stop-color="#000C5C"/>
</linearGradient>
<linearGradient id="paint1_linear_3_802" x1="700" y1="642.938" x2="700" y2="985.221" gradientUnits="userSpaceOnUse">
<stop stop-color="white"/>
<stop offset="1" stop-color="white" stop-opacity="0"/>
</linearGradient>
<linearGradient id="paint2_linear_3_802" x1="885.104" y1="642.938" x2="885.104" y2="919.36" gradientUnits="userSpaceOnUse">
<stop stop-color="white"/>
<stop offset="1" stop-color="white" stop-opacity="0"/>
</linearGradient>
<linearGradient id="paint3_linear_3_802" x1="352.239" y1="813.307" x2="352.239" y2="985.221" gradientUnits="userSpaceOnUse">
<stop stop-color="white"/>
<stop offset="1" stop-color="white" stop-opacity="0"/>
</linearGradient>
<linearGradient id="paint4_linear_3_802" x1="700" y1="1400" x2="700" y2="985.221" gradientUnits="userSpaceOnUse">
<stop stop-color="#000C5C"/>
<stop offset="0.1062" stop-color="#091164"/>
<stop offset="0.2795" stop-color="#211D79"/>
<stop offset="0.4983" stop-color="#49319B"/>
<stop offset="0.7513" stop-color="#804CCB"/>
<stop offset="1" stop-color="#BC6BFF"/>
</linearGradient>
<linearGradient id="paint5_linear_3_802" x1="700" y1="1327.5" x2="700" y2="985.22" gradientUnits="userSpaceOnUse">
<stop stop-color="white"/>
<stop offset="1" stop-color="white" stop-opacity="0"/>
</linearGradient>
<linearGradient id="paint6_linear_3_802" x1="885.104" y1="1327.5" x2="885.104" y2="1051.08" gradientUnits="userSpaceOnUse">
<stop stop-color="white"/>
<stop offset="1" stop-color="white" stop-opacity="0"/>
</linearGradient>
<linearGradient id="paint7_linear_3_802" x1="352.239" y1="1157.13" x2="352.239" y2="985.22" gradientUnits="userSpaceOnUse">
<stop stop-color="white"/>
<stop offset="1" stop-color="white" stop-opacity="0"/>
</linearGradient>
</defs>
</svg>
