<svg width="1400" height="1400" viewBox="0 0 1400 1400" fill="none" xmlns="http://www.w3.org/2000/svg">
<path d="M1400 0H0V1400H1400V0Z" fill="url(#paint0_linear_3_802)"/>
<path d="M175.296 450.625C176.466 449.892 176.819 448.349 176.086 447.179C175.353 446.009 173.81 445.655 172.64 446.389C171.47 447.122 171.116 448.665 171.85 449.835C172.583 451.005 174.126 451.359 175.296 450.625Z" fill="white"/>
<path d="M341.819 875.545C342.989 874.811 343.343 873.269 342.61 872.099C341.876 870.929 340.334 870.575 339.164 871.308C337.994 872.042 337.64 873.584 338.373 874.754C339.107 875.924 340.649 876.278 341.819 875.545Z" fill="white"/>
<path d="M571.768 640.608C572.938 639.875 573.291 638.332 572.558 637.162C571.825 635.992 570.282 635.638 569.112 636.372C567.942 637.105 567.588 638.648 568.322 639.818C569.055 640.988 570.598 641.342 571.768 640.608Z" fill="white"/>
<path d="M528.822 279.343C529.992 278.61 530.345 277.067 529.612 275.897C528.879 274.727 527.336 274.373 526.166 275.107C524.996 275.84 524.642 277.383 525.376 278.553C526.109 279.723 527.652 280.076 528.822 279.343Z" fill="white"/>
<path d="M528.85 87.4346C530.019 86.7013 530.373 85.1584 529.64 83.9886C528.907 82.8187 527.364 82.4648 526.194 83.1981C525.024 83.9314 524.67 85.4742 525.404 86.6441C526.137 87.8139 527.68 88.1679 528.85 87.4346Z" fill="white"/>
<path d="M736.305 212.096C738.177 210.922 738.743 208.454 737.57 206.582C736.396 204.71 733.928 204.144 732.056 205.317C730.184 206.491 729.618 208.959 730.791 210.831C731.964 212.703 734.433 213.269 736.305 212.096Z" fill="white"/>
<path d="M267.391 689.546C268.561 688.813 268.915 687.27 268.182 686.1C267.449 684.931 265.906 684.577 264.736 685.31C263.566 686.043 263.212 687.586 263.945 688.756C264.679 689.926 266.221 690.28 267.391 689.546Z" fill="white"/>
<path d="M124.281 784.94C125.451 784.206 125.805 782.663 125.072 781.494C124.338 780.324 122.795 779.97 121.625 780.703C120.456 781.437 120.102 782.98 120.835 784.15C121.569 785.319 123.112 785.673 124.281 784.94Z" fill="white"/>
<path d="M344.346 358.341C345.516 357.608 345.87 356.065 345.137 354.895C344.404 353.725 342.861 353.371 341.691 354.105C340.521 354.838 340.167 356.381 340.9 357.551C341.634 358.72 343.177 359.074 344.346 358.341Z" fill="white"/>
<path d="M1359.31 536.848C1360.48 536.114 1360.84 534.572 1360.1 533.402C1359.37 532.232 1357.83 531.878 1356.66 532.611C1355.49 533.345 1355.13 534.887 1355.87 536.057C1356.6 537.227 1358.14 537.581 1359.31 536.848Z" fill="white"/>
<path d="M1212.54 339.877C1213.71 339.144 1214.07 337.601 1213.33 336.431C1212.6 335.261 1211.06 334.907 1209.89 335.641C1208.72 336.374 1208.36 337.917 1209.1 339.087C1209.83 340.256 1211.37 340.61 1212.54 339.877Z" fill="white"/>
<path d="M235.117 241.913C236.287 241.179 236.641 239.637 235.907 238.467C235.174 237.297 233.631 236.943 232.461 237.676C231.291 238.41 230.938 239.952 231.671 241.122C232.404 242.292 233.947 242.646 235.117 241.913Z" fill="white"/>
<path d="M694.883 565.897C696.052 565.164 696.406 563.621 695.673 562.451C694.939 561.281 693.396 560.927 692.227 561.661C691.057 562.394 690.703 563.937 691.436 565.107C692.17 566.277 693.713 566.631 694.883 565.897Z" fill="white"/>
<path d="M1006.66 661.605C1007.83 660.871 1008.19 659.328 1007.46 658.159C1006.72 656.989 1005.18 656.635 1004.01 657.368C1002.84 658.102 1002.49 659.645 1003.22 660.815C1003.95 661.984 1005.5 662.338 1006.66 661.605Z" fill="white"/>
<path d="M941.438 415.064C942.608 414.331 942.962 412.788 942.229 411.618C941.496 410.448 939.953 410.094 938.783 410.827C937.613 411.561 937.259 413.104 937.992 414.273C938.726 415.443 940.269 415.797 941.438 415.064Z" fill="white"/>
<path d="M1230.21 728.825C1231.38 728.092 1231.74 726.549 1231 725.379C1230.27 724.209 1228.73 723.855 1227.56 724.589C1226.39 725.322 1226.03 726.865 1226.77 728.035C1227.5 729.205 1229.04 729.559 1230.21 728.825Z" fill="white"/>
<path d="M1001.68 159.869C1002.85 159.136 1003.2 157.593 1002.47 156.423C1001.73 155.253 1000.19 154.899 999.02 155.633C997.85 156.366 997.496 157.909 998.23 159.079C998.963 160.249 1000.51 160.603 1001.68 159.869Z" fill="white"/>
<path d="M1114.87 539.31C1116.04 538.576 1116.39 537.033 1115.66 535.864C1114.92 534.694 1113.38 534.34 1112.21 535.073C1111.04 535.807 1110.69 537.35 1111.42 538.52C1112.15 539.689 1113.7 540.043 1114.87 539.31Z" fill="white"/>
<path d="M998.86 526.136C1000.26 525.256 1000.69 523.404 999.808 522.001C998.928 520.597 997.076 520.172 995.672 521.052C994.268 521.932 993.844 523.784 994.724 525.188C995.604 526.592 997.456 527.016 998.86 526.136Z" fill="white"/>
<path d="M627.627 202.919C629.031 202.038 629.455 200.187 628.575 198.783C627.695 197.379 625.844 196.955 624.44 197.835C623.036 198.715 622.611 200.566 623.491 201.97C624.372 203.374 626.223 203.799 627.627 202.919Z" fill="white"/>
<path d="M803.302 57.1716C805.595 55.7343 806.288 52.7104 804.851 50.4175C803.414 48.1245 800.39 47.4308 798.097 48.8681C795.804 50.3053 795.11 53.3293 796.548 55.6222C797.985 57.9152 801.009 58.6089 803.302 57.1716Z" fill="white"/>
<path d="M1044.13 289.384C1046.42 287.946 1047.11 284.922 1045.68 282.629C1044.24 280.337 1041.21 279.643 1038.92 281.08C1036.63 282.517 1035.93 285.541 1037.37 287.834C1038.81 290.127 1041.83 290.821 1044.13 289.384Z" fill="white"/>
<path d="M1242.5 629.114C1244.79 627.677 1245.48 624.653 1244.05 622.36C1242.61 620.067 1239.59 619.374 1237.29 620.811C1235 622.248 1234.31 625.272 1235.74 627.565C1237.18 629.858 1240.2 630.552 1242.5 629.114Z" fill="white"/>
<path d="M1336.61 57.2213C1338.91 55.784 1339.6 52.7601 1338.16 50.4671C1336.73 48.1741 1333.7 47.4805 1331.41 48.9177C1329.12 50.355 1328.42 53.379 1329.86 55.6719C1331.3 57.9649 1334.32 58.6585 1336.61 57.2213Z" fill="white"/>
<path d="M689.525 725.056C690.929 724.176 691.354 722.324 690.474 720.92C689.594 719.517 687.742 719.092 686.338 719.972C684.934 720.852 684.51 722.704 685.39 724.108C686.27 725.511 688.122 725.936 689.525 725.056Z" fill="white"/>
<path d="M447.603 502.92C449.007 502.04 449.432 500.188 448.552 498.785C447.672 497.381 445.82 496.956 444.416 497.836C443.012 498.716 442.588 500.568 443.468 501.972C444.348 503.376 446.2 503.8 447.603 502.92Z" fill="white"/>
<path d="M798.371 451.96C800.664 450.523 801.358 447.499 799.921 445.206C798.483 442.913 795.459 442.219 793.166 443.656C790.873 445.094 790.18 448.117 791.617 450.41C793.054 452.703 796.078 453.397 798.371 451.96Z" fill="white"/>
<path d="M620.628 397.991C622.921 396.554 623.615 393.53 622.178 391.237C620.74 388.944 617.716 388.25 615.423 389.687C613.13 391.125 612.437 394.149 613.874 396.442C615.311 398.734 618.335 399.428 620.628 397.991Z" fill="white"/>
<path d="M1331.69 859.539C1333.99 858.101 1334.68 855.077 1333.24 852.784C1331.81 850.491 1328.78 849.798 1326.49 851.235C1324.2 852.672 1323.5 855.696 1324.94 857.989C1326.38 860.282 1329.4 860.976 1331.69 859.539Z" fill="white"/>
<path d="M458.453 796.734C460.746 795.296 461.439 792.272 460.002 789.979C458.564 787.686 455.54 786.993 453.247 788.43C450.954 789.868 450.261 792.892 451.698 795.185C453.136 797.478 456.16 798.172 458.453 796.734Z" fill="white"/>
<path d="M69.7512 917.36C72.0442 915.922 72.7376 912.898 71.3001 910.605C69.8626 908.312 66.8384 907.619 64.5454 909.056C62.2525 910.494 61.559 913.518 62.9966 915.811C64.4341 918.104 67.4582 918.797 69.7512 917.36Z" fill="white"/>
<path d="M100.809 328.574C102.213 327.694 102.637 325.842 101.757 324.439C100.877 323.035 99.0255 322.61 97.6216 323.49C96.2178 324.37 95.7932 326.222 96.6733 327.626C97.5534 329.03 99.405 329.454 100.809 328.574Z" fill="white"/>
<path d="M103.869 622.556C105.273 621.676 105.697 619.824 104.818 618.42C103.938 617.017 102.086 616.592 100.682 617.472C99.2785 618.352 98.8538 620.203 99.7337 621.607C100.614 623.011 102.465 623.436 103.869 622.556Z" fill="white"/>
<path d="M47.209 87.8451C48.6128 86.9651 49.0375 85.1137 48.1576 83.7099C47.2776 82.306 45.4262 81.8813 44.0224 82.7613C42.6185 83.6412 42.1938 85.4926 43.0738 86.8965C43.9537 88.3003 45.8051 88.725 47.209 87.8451Z" fill="white"/>
<path d="M1175.4 118.72C1177.7 117.282 1178.39 114.258 1176.95 111.966C1175.52 109.673 1172.49 108.979 1170.2 110.416C1167.91 111.853 1167.21 114.877 1168.65 117.17C1170.09 119.463 1173.11 120.157 1175.4 118.72Z" fill="white"/>
<path d="M363.818 78.505C365.222 77.6248 365.647 75.7733 364.767 74.3695C363.886 72.9656 362.035 72.541 360.631 73.4212C359.227 74.3013 358.803 76.1528 359.683 77.5567C360.563 78.9605 362.414 79.3851 363.818 78.505Z" fill="white"/>
<path d="M381.8 577.2C381.8 589 372.2 598.6 360.4 598.6C372.2 598.6 381.8 608.2 381.8 620C381.8 608.2 391.4 598.6 403.2 598.6C391.4 598.6 381.8 589 381.8 577.2Z" fill="white"/>
<path d="M1307.8 253.3C1307.8 265.1 1298.2 274.7 1286.4 274.7C1298.2 274.7 1307.8 284.3 1307.8 296.1C1307.8 284.3 1317.4 274.7 1329.2 274.7C1317.3 274.7 1307.8 265.1 1307.8 253.3Z" fill="white"/>
<path d="M805.6 307.7C805.6 319.5 796 329.1 784.2 329.1C796 329.1 805.6 338.7 805.6 350.5C805.6 338.7 815.2 329.1 827 329.1C815.1 329.1 805.6 319.5 805.6 307.7Z" fill="white"/>
<path d="M850.2 629.8C850.2 638.7 843 645.9 834.1 645.9C843 645.9 850.2 653.1 850.2 662C850.2 653.1 857.4 645.9 866.3 645.9C857.4 645.9 850.2 638.7 850.2 629.8Z" fill="white"/>
<path d="M144.3 114.5C144.3 126.3 134.7 135.9 122.9 135.9C134.7 135.9 144.3 145.5 144.3 157.3C144.3 145.5 153.9 135.9 165.7 135.9C153.9 135.9 144.3 126.3 144.3 114.5Z" fill="white"/>
<g opacity="0.1">
<g opacity="0.1">
<g opacity="0.1">
<path opacity="0.1" d="M1357 1307.8C1219.1 1304 1076.5 1302 930.6 1302C784.7 1302 642 1304 504.2 1307.8C642.1 1311.6 784.7 1313.6 930.6 1313.6C1076.5 1313.6 1219.1 1311.6 1357 1307.8Z" fill="black"/>
</g>
<g opacity="0.1">
<path opacity="0.1" d="M1183.8 1323.6C1101.9 1321 1017.3 1319.7 930.6 1319.7C843.9 1319.7 759.3 1321.1 677.4 1323.6C759.3 1326.2 843.9 1327.5 930.6 1327.5C1017.3 1327.5 1101.9 1326.1 1183.8 1323.6Z" fill="black"/>
</g>
</g>
<g opacity="0.1">
<g opacity="0.1">
<path opacity="0.1" d="M549 1281.3C484.2 1277.5 417.2 1275.5 348.7 1275.5C280.2 1275.5 213.1 1277.5 148.4 1281.3C213.2 1285.1 280.2 1287.1 348.7 1287.1C417.2 1287.1 484.2 1285.2 549 1281.3Z" fill="black"/>
</g>
<g opacity="0.1">
<path opacity="0.1" d="M280.4 1297.1C241.9 1294.5 202.2 1293.2 161.4 1293.2C120.6 1293.2 80.9001 1294.6 42.4001 1297.1C80.9001 1299.7 120.6 1301 161.4 1301C202.2 1301 242 1299.7 280.4 1297.1Z" fill="black"/>
</g>
</g>
<g opacity="0.1">
<g opacity="0.1">
<path opacity="0.1" d="M440.7 1023.4C578.6 1027.2 721.2 1029.2 867.1 1029.2C1013 1029.2 1155.7 1027.2 1293.5 1023.4C1155.6 1019.6 1013 1017.6 867.1 1017.6C721.2 1017.6 578.6 1019.6 440.7 1023.4Z" fill="black"/>
</g>
<g opacity="0.1">
<path opacity="0.1" d="M90.3002 1007.6C172.2 1010.2 256.8 1011.5 343.5 1011.5C430.2 1011.5 514.8 1010.1 596.7 1007.6C514.8 1005 430.2 1003.7 343.5 1003.7C256.8 1003.7 172.2 1005 90.3002 1007.6Z" fill="black"/>
</g>
</g>
<g opacity="0.1">
<g opacity="0.1">
<path opacity="0.1" d="M1130.9 1187.7C991.6 1183.9 847.5 1181.9 700 1181.9C552.5 1181.9 408.4 1183.9 269.1 1187.7C408.4 1191.5 552.5 1193.5 700 1193.5C847.5 1193.5 991.6 1191.5 1130.9 1187.7Z" fill="black"/>
</g>
<g opacity="0.1">
<path opacity="0.1" d="M1327.4 1203.5C1244.7 1200.9 1159.1 1199.6 1071.5 1199.6C983.9 1199.6 898.4 1201 815.6 1203.5C898.3 1206.1 983.9 1207.4 1071.5 1207.4C1159.1 1207.4 1244.6 1206.1 1327.4 1203.5Z" fill="black"/>
</g>
</g>
<g opacity="0.1">
<g opacity="0.1">
<path opacity="0.1" d="M492.9 1141.3C420.5 1137.6 345.7 1135.7 269.1 1135.7C192.5 1135.7 117.7 1137.6 45.3002 1141.3C117.7 1145 192.5 1146.9 269.1 1146.9C345.7 1146.9 420.5 1144.9 492.9 1141.3Z" fill="black"/>
</g>
<g opacity="0.1">
<path opacity="0.1" d="M1363.5 1141.3C1291.1 1137.6 1216.3 1135.7 1139.7 1135.7C1063.1 1135.7 988.3 1137.6 915.9 1141.3C988.3 1145 1063.1 1146.9 1139.7 1146.9C1216.3 1146.9 1291.1 1144.9 1363.5 1141.3Z" fill="black"/>
</g>
</g>
</g>
<defs>
<linearGradient id="paint0_linear_3_802" x1="700" y1="1400" x2="700" y2="0" gradientUnits="userSpaceOnUse">
<stop stop-color="#7489A4"/>
<stop offset="1" stop-color="#6B6A92"/>
</linearGradient>
</defs>
</svg>
