<svg width="551" height="321" viewBox="0 0 551 321" fill="none" xmlns="http://www.w3.org/2000/svg">
<path d="M506.7 161.3V155.1C498.7 161.3 482.9 155.1 482.9 155.1L485.7 152.3V143.3C463.4 152 433.7 143.3 433.7 143.3L434 135C429.3 140 414 137.7 414 137.7L443.3 118.4V110.4C423.3 115.7 402.6 110.4 402.6 110.4C403.9 106.7 400.9 100.4 400.9 100.4C401.2 103.1 395.6 108.7 395.6 108.7H381.6C314.9 76.7 278.3 26.7 278.3 26.7V0H275H271.7V26.7C271.7 26.7 235 76.7 168.4 108.7H154.4C154.4 108.7 148.7 103 149.1 100.4C149.1 100.4 146.1 106.7 147.4 110.4C147.4 110.4 126.7 115.7 106.7 110.4V118.4L136 137.7C136 137.7 120.7 140 116 135L116.3 143.3C116.3 143.3 86.6 152 64.3 143.3V152.3L67.1 155.1C67.1 155.1 51.3 161.3 43.3 155.1V161.3C43.3 161.3 19.3 169 0 161.3V169C0 169 27.3 183 46.7 188.7C46.7 188.7 52 198.7 64 200.7V205.4V316.4H68.7V206.4L80.4 209.2V316.2H85.1V210.4L91.8 212V316.2H96.5V213.1L99.8 213.9V320.9H275H450.3V213.9L453.6 213.1V316.2H458.3V212L465 210.4V316.3H469.7V209.3L481.4 206.5V316.3H486.1V205.3V200.6C498.1 198.6 503.4 188.6 503.4 188.6C522.7 182.9 550.1 168.9 550.1 168.9V161.2C530.7 168.9 506.7 161.3 506.7 161.3Z" fill="url(#paint0_linear_3_1995)"/>
<defs>
<linearGradient id="paint0_linear_3_1995" x1="274.99" y1="22" x2="274.99" y2="259.006" gradientUnits="userSpaceOnUse">
<stop stop-color="#5C1E04"/>
<stop offset="0.418" stop-color="#5E1F04"/>
<stop offset="0.5686" stop-color="#652404"/>
<stop offset="0.6759" stop-color="#702D05"/>
<stop offset="0.7627" stop-color="#813906"/>
<stop offset="0.837" stop-color="#974907"/>
<stop offset="0.9028" stop-color="#B35D09"/>
<stop offset="0.9609" stop-color="#D2730B"/>
<stop offset="1" stop-color="#EC860C"/>
</linearGradient>
</defs>
</svg>
