<svg width="572" height="367" viewBox="0 0 572 367" fill="none" xmlns="http://www.w3.org/2000/svg">
<path d="M526.872 184.472V177.381C518.554 184.472 502.125 177.381 502.125 177.381L505.036 174.179V163.886C481.848 173.836 450.966 163.886 450.966 163.886L451.278 154.394C446.391 160.112 430.482 157.482 430.482 157.482L460.948 135.409V126.26C440.152 132.321 418.628 126.26 418.628 126.26C419.98 122.028 416.86 114.823 416.86 114.823C417.172 117.911 411.349 124.316 411.349 124.316H396.792C327.436 87.7186 289.379 30.5357 289.379 30.5357V0H285.948H282.517V30.5357C282.517 30.5357 244.356 87.7186 175.104 124.316H160.547C160.547 124.316 154.62 117.797 155.036 114.823C155.036 114.823 151.916 122.028 153.268 126.26C153.268 126.26 131.744 132.321 110.948 126.26V135.409L141.414 157.482C141.414 157.482 125.505 160.112 120.618 154.394L120.93 163.886C120.93 163.886 90.0476 173.836 66.8599 163.886V174.179L69.7713 177.381C69.7713 177.381 53.3423 184.472 45.0238 177.381V184.472C45.0238 184.472 20.0684 193.278 0 184.472V193.278C0 193.278 28.3869 209.29 48.5592 215.808C48.5592 215.808 54.0702 227.245 66.5479 229.532V234.907V361.854H71.435V236.051L83.6008 239.253V361.625H88.4879V240.626L95.4547 242.456V361.625H100.342V243.714L103.773 244.629V367H285.948H468.227V244.629L471.658 243.714V361.625H476.545V242.456L483.512 240.626V361.739H488.399V239.368L500.565 236.165V361.739H505.452V234.793V229.418C517.93 227.131 523.441 215.694 523.441 215.694C543.509 209.175 572 193.164 572 193.164V184.358C551.828 193.164 526.872 184.472 526.872 184.472Z" fill="url(#paint0_linear_108_9)"/>
<defs>
<linearGradient id="paint0_linear_108_9" x1="285.938" y1="25.1605" x2="285.938" y2="296.214" gradientUnits="userSpaceOnUse">
<stop stop-color="#EFA9B1"/>
<stop offset="1" stop-color="#FDCEBA"/>
</linearGradient>
</defs>
</svg>
